HIERARCHY
ROOT Hips
{
	OFFSET 0.000000 0.000000 0.000000
	CHANNELS 6 Xposition Yposition Zposition Zrotation Xrotation Yrotation
	JOINT RightUpLeg
	{
		OFFSET -10.032200 0.000000 0.000000
		CHANNELS 3 Zrotation Xrotation Yrotation
		JOINT RightLeg
		{
			OFFSET 0.000000 -40.977000 0.000000
			CHANNELS 3 Zrotation Xrotation Yrotation
			JOINT RightFoot
			{
				OFFSET 0.000000 -38.933200 0.000000
				CHANNELS 3 Zrotation Xrotation Yrotation
				JOINT RightToe
				{
					OFFSET 0.000000 -1.977400 9.184000
					CHANNELS 3 Zrotation Xrotation Yrotation
					JOINT RightToeEnd
					{
						OFFSET 0.000000 2.335600 6.099100
						CHANNELS 3 Zrotation Xrotation Yrotation
						End Site
						{
						    OFFSET 0.000000 1.788000 4.669400
						}
					}
				}
			}
		}
	}
	JOINT LeftUpLeg
	{
		OFFSET 10.032200 0.000000 0.000000
		CHANNELS 3 Zrotation Xrotation Yrotation
		JOINT LeftLeg
		{
			OFFSET 0.000000 -40.977000 0.000000
			CHANNELS 3 Zrotation Xrotation Yrotation
			JOINT LeftFoot
			{
				OFFSET 0.000000 -38.933200 0.000000
				CHANNELS 3 Zrotation Xrotation Yrotation
				JOINT LeftToe
				{
					OFFSET 0.000000 -1.977400 9.184000
					CHANNELS 3 Zrotation Xrotation Yrotation
					JOINT LeftToeEnd
					{
						OFFSET 0.000000 2.335600 6.099100
						CHANNELS 3 Zrotation Xrotation Yrotation
						End Site
						{
						    OFFSET 0.000000 1.788000 4.669400
						}
					}
				}
			}
		}
	}
	JOINT Spine
	{
		OFFSET 0.000000 16.960900 0.000000
		CHANNELS 3 Zrotation Xrotation Yrotation
		JOINT Spine1
		{
			OFFSET 0.000000 13.413900 0.000000
			CHANNELS 3 Zrotation Xrotation Yrotation
			JOINT Spine2
			{
				OFFSET 0.000000 10.384400 0.000000
				CHANNELS 3 Zrotation Xrotation Yrotation
				JOINT LeftShoulder
				{
					OFFSET 2.000000 10.384400 0.000000
					CHANNELS 3 Zrotation Xrotation Yrotation
					JOINT LeftArm
					{
						OFFSET 15.649100 0.000000 0.000000
						CHANNELS 3 Zrotation Xrotation Yrotation
						JOINT LeftForeArm
						{
							OFFSET 0.000000 -26.641600 0.000000
							CHANNELS 3 Zrotation Xrotation Yrotation
							JOINT LeftHand
							{
								OFFSET 0.000000 -23.740600 0.000000
								CHANNELS 3 Zrotation Xrotation Yrotation
								JOINT LeftFinger0
								{
									OFFSET 0.000000 -7.620900 0.000000
									CHANNELS 3 Zrotation Xrotation Yrotation
									End Site
									{
									    OFFSET 0.000000 -5.000000 0.000000
									}
								}
							}
						}
					}
				}
				JOINT RightShoulder
				{
					OFFSET -2.000000 10.384400 0.000000
					CHANNELS 3 Zrotation Xrotation Yrotation
					JOINT RightArm
					{
						OFFSET -15.649100 0.000000 0.000000
						CHANNELS 3 Zrotation Xrotation Yrotation
						JOINT RightForeArm
						{
							OFFSET 0.000000 -26.641600 0.000000
							CHANNELS 3 Zrotation Xrotation Yrotation
							JOINT RightHand
							{
								OFFSET 0.000000 -23.740600 0.000000
								CHANNELS 3 Zrotation Xrotation Yrotation
								JOINT RightFinger0
								{
									OFFSET 0.000000 -7.620900 0.000000
									CHANNELS 3 Zrotation Xrotation Yrotation
									End Site
									{
									    OFFSET 0.000000 -5.000000 0.000000
									}
								}
							}
						}
					}
				}
				JOINT Neck
				{
					OFFSET 0.000000 10.384400 0.000000
					CHANNELS 3 Zrotation Xrotation Yrotation
					JOINT Head
					{
						OFFSET 0.000000 10.146900 0.000000
						CHANNELS 3 Zrotation Xrotation Yrotation
						JOINT HeadTip
						{
							OFFSET 0.000000 10.000000 0.000000
							CHANNELS 3 Zrotation Xrotation Yrotation
							End Site
							{
							    OFFSET 0.000000 5.000000 0.000000
							}
						}
					}
				}
			}
		}
	}
}
MOTION
Frames:	8
Frame Time:	0.033332
70.626100 82.145100 20.953900 2.390975 1.079176 -144.813469 -19.358070 -0.306657 -24.726726 -0.000000 18.766509 0.000000 21.060966 16.046236 -2.723508 0.000000 0.150474 -0.000000 0.000000 -0.000000 -0.000000 31.337571 -18.896249 45.036472 -0.000000 38.418241 0.000000 -8.769324 21.292069 3.895752 -0.000000 -4.080183 0.000000 -0.000000 -0.000000 0.000000 3.391854 13.558569 2.349021 -0.000000 5.389331 -0.000000 -0.000000 -0.000000 0.000000 -16.164677 -0.000000 2.968135 36.333133 -15.011111 -6.285758 -0.000000 -79.214460 -0.000000 22.810858 2.397527 -15.366932 -0.000000 0.000000 -0.000000 10.925567 -0.000000 0.505405 -27.499496 -4.210268 -4.098913 -0.000444 -71.099190 -0.000317 -16.481373 11.427737 48.812235 -0.000000 0.000000 -0.000000 -0.000000 -0.000000 0.000000 0.246741 -6.851815 38.813093 -0.000000 -0.000000 -0.000000 
65.600900 82.951100 23.311400 3.679614 -0.165264 -146.375632 -21.478940 -2.477867 -28.877782 0.000000 16.851123 0.000000 20.486604 25.361888 -12.536371 0.000000 3.184681 -0.000000 0.000000 0.000000 -0.000000 27.588347 -18.219156 48.667911 -0.000000 37.373645 0.000000 -4.771012 14.551129 4.411146 -0.000000 -4.168187 -0.000000 -0.000000 0.000000 -0.000000 5.996264 12.767538 1.062293 -0.000000 5.222035 -0.000000 -0.000000 0.000000 -0.000000 -14.734646 -0.000000 3.266186 34.299898 -14.895058 -8.809289 -0.000000 -82.225106 -0.000000 20.662785 1.852703 -17.418639 -0.000000 0.000000 -0.000000 10.537795 -0.000000 -0.648219 -28.309138 -1.313229 -6.583502 -0.000536 -74.174272 -0.000405 -15.790238 12.123650 43.647844 -0.000000 0.000000 0.000000 -0.000000 0.000000 -0.000000 -1.079025 -8.004383 40.838682 0.000000 0.000000 -0.000000 
61.230400 84.289200 25.962300 3.816375 -1.524612 -148.880540 -22.863444 -7.310584 -31.748021 0.000000 18.986166 0.000000 16.221849 28.907585 -19.213135 0.000000 7.530043 -0.000000 -0.000000 -0.000000 0.000000 25.937724 -18.859350 50.492920 -0.000000 40.072298 -0.000000 -6.498773 19.395591 2.385893 -0.000000 -9.076826 -0.000000 0.000000 0.000000 -0.000000 6.218775 14.449360 0.345035 -0.000000 5.239853 -0.000000 -0.000000 0.000000 -0.000000 -11.302860 -0.000000 3.273327 32.545587 -15.402923 -9.347572 -0.000000 -87.546337 -0.000000 18.746281 0.863094 -20.120027 -0.000000 0.000000 0.000000 10.053442 -0.000000 -0.082558 -29.755821 -0.827444 -8.025414 -0.000635 -76.528406 -0.000501 -14.770330 13.236713 42.301585 -0.000000 0.000000 -0.000000 -0.000000 0.000000 -0.000000 0.514854 -11.667787 43.749339 -0.000000 -0.000000 -0.000000 
57.585800 85.838300 28.902200 3.096776 -2.813430 -151.423487 -22.692576 -14.713617 -31.377861 -0.000000 27.732203 -0.000000 13.719880 27.279768 -9.784682 0.000000 4.790477 0.000000 -0.000000 0.000000 0.000000 26.779841 -21.219617 52.660508 0.000000 45.668990 -0.000000 -10.781956 33.718774 -0.024030 0.000000 -13.159779 -0.000000 0.000000 0.000000 -0.000000 5.283395 17.947622 -0.194408 -0.000000 5.645805 -0.000000 -0.000000 -0.000000 -0.000000 -10.289558 0.000000 2.344445 35.828277 -16.884546 -7.123278 -180.000037 -87.576180 -180.000037 21.981238 -2.176415 -19.540304 -0.000000 0.000000 0.000000 7.781876 -0.000000 1.351032 -30.170207 -4.025986 -7.953018 -0.000670 -77.214997 -0.000535 -15.284439 13.617671 43.916626 -0.000000 0.000000 -0.000000 -0.000000 -0.000000 -0.000000 1.364366 -16.028913 46.427358 0.000000 -0.000000 0.000000 
53.830100 86.890800 31.921700 2.355239 -4.260471 -154.019285 -22.591324 -22.267656 -35.304628 -0.000000 37.575201 -0.000000 14.801003 23.706300 -2.247538 0.000000 1.088833 -0.000000 -0.000000 0.000000 -0.000000 28.233748 -24.326371 52.143182 -0.000000 50.464740 -0.000000 -9.979318 41.929298 -8.162534 -0.000000 -1.363717 -0.000000 -0.000000 -0.000000 -0.000000 5.081160 20.954947 0.057091 0.000000 5.968270 -0.000000 -0.000000 0.000000 -0.000000 -10.633320 -0.000000 1.392467 37.460910 -19.540289 -4.668286 0.000000 -87.299828 -0.000000 35.360946 -9.286802 -13.944006 -0.000000 0.000000 -0.000000 3.984940 0.000000 2.728920 -31.708605 -9.070669 -6.550841 -0.000693 -77.619187 -0.000557 -14.560541 13.039947 44.056521 -0.000000 0.000000 -0.000000 -0.000000 0.000000 -0.000000 -1.107748 -18.403673 47.027216 -0.000000 0.000000 -0.000000 
49.639800 86.898200 34.659500 1.656988 -5.900343 -156.613299 -22.846801 -28.850047 -36.496365 -0.000000 46.529085 -0.000000 16.645736 21.619995 2.754978 -0.000000 -1.104526 0.000000 -0.000000 -0.000000 -0.000000 29.278264 -26.471854 50.374379 -0.000000 53.008447 -0.000000 -13.941929 37.753401 -2.315649 -0.000000 -0.559286 -0.000000 0.000000 -0.000000 -0.000000 5.685195 22.475523 0.785526 0.000000 5.699143 -0.000000 -0.000000 0.000000 -0.000000 -12.058598 0.000000 0.128023 38.086921 -23.585425 -2.797456 -0.000000 -70.821823 0.000000 38.776985 -8.646324 -15.176811 -0.000000 0.000000 -0.000000 1.679231 -0.000000 3.695466 -37.258007 -15.567619 -4.827701 -0.000708 -77.876768 -0.000572 -13.391822 12.196626 44.120423 -0.000000 0.000000 0.000000 -0.000000 0.000000 -0.000000 -5.074800 -18.139978 46.453844 -0.000000 0.000000 -0.000000 
45.238900 85.642600 36.609600 0.360799 -6.291866 -158.349450 -22.172374 -30.888814 -32.976889 -0.000000 51.403536 -0.000000 20.453392 26.923611 6.952185 -0.000000 -1.421494 0.000000 0.000000 -0.000000 -0.000000 31.276123 -25.697209 50.376833 0.000000 54.811965 0.000000 -12.754037 27.041143 8.258281 -0.000000 -2.600085 -0.000000 -0.000000 0.000000 -0.000000 6.413565 23.715542 0.461572 0.000000 5.323225 -0.000000 0.000000 0.000000 -0.000000 -13.846572 -0.000000 -2.637618 41.989585 -27.142823 -2.502625 -0.000000 -50.426310 -0.000000 25.029035 1.273001 -19.822480 0.000000 0.000000 -0.000000 1.901782 -0.000000 5.044374 -45.743486 -23.154147 -4.460867 -0.000619 -76.206301 -0.000486 -13.822520 10.406822 43.749580 -0.000000 0.000000 -0.000000 0.000000 0.000000 -0.000000 -7.297830 -16.442704 45.897536 -0.000000 -0.000000 0.000000 
40.685700 83.233100 37.689800 -1.166074 -5.998892 -158.177921 -21.250411 -25.759936 -29.732560 -0.000000 46.761551 0.000000 10.959935 14.521836 9.093436 -0.000000 -9.703281 0.000000 0.000000 0.000000 -0.000000 33.328663 -23.196547 51.485328 -0.000000 55.926564 -0.000000 -10.355879 20.529213 13.679102 -0.000000 -3.429584 -0.000000 -0.000000 0.000000 0.000000 7.090637 23.517245 -1.774724 -0.000000 5.323209 -0.000000 0.000000 0.000000 -0.000000 -13.543099 -0.000000 -4.922356 44.648363 -25.435554 -6.258084 0.000000 -41.172949 -0.000000 13.418690 9.612489 -18.176872 -0.000000 0.000000 -0.000000 3.146002 -0.000000 6.541132 -53.826125 -30.336627 -5.112201 -0.000463 -71.836830 -0.000336 -14.506582 8.827891 42.561667 -0.000000 0.000000 -0.000000 0.000000 0.000000 -0.000000 -6.591450 -13.954578 46.221157 -0.000000 -0.000000 -0.000000 
